<?xml version="1.0" ?>

<!-- Uploaded to: SVG Repo, www.svgrepo.com, Generator: SVG Repo Mixer Tools -->
<svg fill="#000000" width="800px" height="800px" viewBox="0 0 32 32" xmlns="http://www.w3.org/2000/svg">

<title/>

<g data-name="Layer 2" id="Layer_2">

<path d="M14.18,22H9.76A2.72,2.72,0,0,1,7,19.33V17.67A2.72,2.72,0,0,1,9.76,15h2.65a.73.73,0,0,0,.77-.67V12.67a.73.73,0,0,0-.77-.67H8a1,1,0,0,1,0-2h4.41a2.72,2.72,0,0,1,2.77,2.67v1.66A2.72,2.72,0,0,1,12.41,17H9.76a.72.72,0,0,0-.76.67v1.66a.72.72,0,0,0,.76.67h4.42a1,1,0,0,1,0,2Z"/>

<path d="M23,17H18.59a2.72,2.72,0,0,1-2.77-2.67V11a1,1,0,0,1,2,0v3.33a.73.73,0,0,0,.77.67H22V11a1,1,0,0,1,2,0v5A1,1,0,0,1,23,17Z"/>

<path d="M23,22a1,1,0,0,1-1-1V11a1,1,0,0,1,2,0V21A1,1,0,0,1,23,22Z"/>

<path d="M16,30A14,14,0,1,1,22.46,3.58a1,1,0,1,1-.92,1.77A12,12,0,1,0,28,16a12,12,0,0,0-1.85-6.4,1,1,0,1,1,1.7-1.06A14,14,0,0,1,16,30Z"/>

</g>

</svg>